<?xml version="1.0" standalone="no"?>
<!DOCTYPE svg PUBLIC "-//W3C//DTD SVG 20010904//EN"
 "http://www.w3.org/TR/2001/REC-SVG-20010904/DTD/svg10.dtd">
<svg version="1.0" xmlns="http://www.w3.org/2000/svg"
 width="256.000000pt" height="256.000000pt" viewBox="0 0 256.000000 256.000000"
 preserveAspectRatio="xMidYMid meet">

<g transform="translate(0.000000,256.000000) scale(0.100000,-0.100000)"
fill="#000000" stroke="none">
<path d="M1140 2554 c-84 -11 -201 -39 -280 -66 -191 -68 -330 -156 -481 -307
-154 -154 -249 -306 -314 -506 -197 -601 75 -1257 638 -1540 189 -95 257 -103
322 -35 30 31 30 32 33 167 2 74 1 146 -2 159 -11 40 -56 56 -128 44 -93 -15
-114 -10 -29 6 40 8 91 24 112 35 33 17 41 27 55 77 9 31 29 74 45 94 63 80
29 130 -104 153 -142 25 -245 74 -309 149 -62 72 -99 196 -100 334 0 119 16
173 78 263 l47 68 -14 48 c-16 54 -17 179 -2 194 14 14 97 -19 184 -71 54 -33
76 -41 101 -37 18 2 80 12 138 22 117 19 261 15 365 -10 88 -21 104 -19 175
25 81 50 169 85 183 71 15 -15 13 -140 -2 -194 l-14 -48 47 -68 c62 -90 78
-144 78 -263 -1 -276 -131 -436 -389 -478 -109 -19 -113 -20 -133 -40 -24 -24
-27 -82 -4 -101 8 -7 25 -31 37 -53 20 -38 22 -60 27 -278 l5 -237 30 -31 c65
-68 133 -60 322 35 563 283 835 939 638 1540 -65 200 -160 352 -314 506 -185
185 -380 293 -631 350 -83 19 -331 33 -410 23z m319 -169 c730 -119 1147 -909
836 -1582 -107 -232 -334 -455 -560 -552 l-70 -29 -6 201 c-3 111 -10 215 -16
231 l-9 29 91 32 c160 55 266 145 329 279 98 208 93 478 -13 644 -27 44 -29
51 -20 102 16 99 -20 275 -63 305 -54 37 -212 6 -336 -67 l-57 -33 -60 13
c-82 18 -331 20 -431 3 l-82 -13 -63 35 c-128 71 -274 99 -327 62 -42 -30 -80
-213 -64 -312 8 -48 6 -55 -21 -100 -82 -131 -103 -326 -57 -518 49 -203 211
-365 413 -416 40 -10 48 -15 45 -33 -2 -15 -14 -24 -40 -30 -57 -14 -122 15
-162 72 -75 110 -147 163 -242 178 -111 17 -189 -71 -138 -154 9 -15 40 -45
68 -68 39 -31 61 -59 93 -124 23 -46 62 -104 85 -129 l43 -45 -40 31 c-66 50
-187 182 -238 260 -320 482 -217 1136 236 1498 243 194 568 280 876 230z
m-652 -1911 c-3 -3 -12 -4 -19 -1 -8 3 -5 6 6 6 11 1 17 -2 13 -5z m-9 -165
c40 -6 80 -8 88 -5 11 4 14 -4 14 -39 0 -50 7 -49 -85 -10 -45 19 -173 94
-180 104 -2 4 17 -3 43 -16 26 -12 80 -28 120 -34z"/>
</g>
</svg>
